<svg width="1440" height="1986" viewBox="0 0 1440 1986" fill="none" xmlns="http://www.w3.org/2000/svg">
<rect width="1440" height="1986" fill="#F5F5F5"/>
<g filter="url(#filter0_f)">
<path fill-rule="evenodd" clip-rule="evenodd" d="M-420.17 853.912C-463.247 766.978 -377.843 679.262 -353.892 585.202C-329.328 488.739 -371.599 353.747 -281.836 310.662C-191.876 267.483 -108.45 376.431 -21.7987 425.802C58.288 471.432 169.735 490.367 190.986 580.057C212.679 671.617 130.915 747.324 71.7301 820.542C9.13163 897.984 -49.0647 993.173 -148.397 999.911C-256.383 1007.24 -372.138 950.846 -420.17 853.912Z" fill="#117DEC"/>
<path fill-rule="evenodd" clip-rule="evenodd" d="M-420.17 853.912C-463.247 766.978 -377.843 679.262 -353.892 585.202C-329.328 488.739 -371.599 353.747 -281.836 310.662C-191.876 267.483 -108.45 376.431 -21.7987 425.802C58.288 471.432 169.735 490.367 190.986 580.057C212.679 671.617 130.915 747.324 71.7301 820.542C9.13163 897.984 -49.0647 993.173 -148.397 999.911C-256.383 1007.24 -372.138 950.846 -420.17 853.912Z" fill="url(#paint0_linear)"/>
<path fill-rule="evenodd" clip-rule="evenodd" d="M-420.17 853.912C-463.247 766.978 -377.843 679.262 -353.892 585.202C-329.328 488.739 -371.599 353.747 -281.836 310.662C-191.876 267.483 -108.45 376.431 -21.7987 425.802C58.288 471.432 169.735 490.367 190.986 580.057C212.679 671.617 130.915 747.324 71.7301 820.542C9.13163 897.984 -49.0647 993.173 -148.397 999.911C-256.383 1007.24 -372.138 950.846 -420.17 853.912Z" fill="#117DEC"/>
<path fill-rule="evenodd" clip-rule="evenodd" d="M-420.17 853.912C-463.247 766.978 -377.843 679.262 -353.892 585.202C-329.328 488.739 -371.599 353.747 -281.836 310.662C-191.876 267.483 -108.45 376.431 -21.7987 425.802C58.288 471.432 169.735 490.367 190.986 580.057C212.679 671.617 130.915 747.324 71.7301 820.542C9.13163 897.984 -49.0647 993.173 -148.397 999.911C-256.383 1007.24 -372.138 950.846 -420.17 853.912Z" fill="url(#paint1_linear)"/>
</g>
<g filter="url(#filter1_f)">
<path fill-rule="evenodd" clip-rule="evenodd" d="M1105.55 -65.0399C1135.87 -115.339 1209.19 -100.201 1265.39 -118.546C1323.03 -137.36 1378.28 -202.877 1430.14 -170.994C1482.12 -139.042 1453.88 -60.9524 1457.28 -0.591259C1460.42 55.1972 1487.65 118.338 1448.68 158.373C1408.89 199.244 1342.94 182.061 1285.75 175.613C1225.26 168.793 1157.13 169.997 1120.74 121.4C1081.18 68.5701 1071.74 -8.95537 1105.55 -65.0399Z" fill="#117DEC"/>
<path fill-rule="evenodd" clip-rule="evenodd" d="M1105.55 -65.0399C1135.87 -115.339 1209.19 -100.201 1265.39 -118.546C1323.03 -137.36 1378.28 -202.877 1430.14 -170.994C1482.12 -139.042 1453.88 -60.9524 1457.28 -0.591259C1460.42 55.1972 1487.65 118.338 1448.68 158.373C1408.89 199.244 1342.94 182.061 1285.75 175.613C1225.26 168.793 1157.13 169.997 1120.74 121.4C1081.18 68.5701 1071.74 -8.95537 1105.55 -65.0399Z" fill="url(#paint2_linear)"/>
<path fill-rule="evenodd" clip-rule="evenodd" d="M1105.55 -65.0399C1135.87 -115.339 1209.19 -100.201 1265.39 -118.546C1323.03 -137.36 1378.28 -202.877 1430.14 -170.994C1482.12 -139.042 1453.88 -60.9524 1457.28 -0.591259C1460.42 55.1972 1487.65 118.338 1448.68 158.373C1408.89 199.244 1342.94 182.061 1285.75 175.613C1225.26 168.793 1157.13 169.997 1120.74 121.4C1081.18 68.5701 1071.74 -8.95537 1105.55 -65.0399Z" fill="#117DEC"/>
<path fill-rule="evenodd" clip-rule="evenodd" d="M1105.55 -65.0399C1135.87 -115.339 1209.19 -100.201 1265.39 -118.546C1323.03 -137.36 1378.28 -202.877 1430.14 -170.994C1482.12 -139.042 1453.88 -60.9524 1457.28 -0.591259C1460.42 55.1972 1487.65 118.338 1448.68 158.373C1408.89 199.244 1342.94 182.061 1285.75 175.613C1225.26 168.793 1157.13 169.997 1120.74 121.4C1081.18 68.5701 1071.74 -8.95537 1105.55 -65.0399Z" fill="url(#paint3_linear)"/>
</g>
<defs>
<filter id="filter0_f" x="-645" y="163" width="949.544" height="948.302" filterUnits="userSpaceOnUse" color-interpolation-filters="sRGB">
<feFlood flood-opacity="0" result="BackgroundImageFix"/>
<feBlend mode="normal" in="SourceGraphic" in2="BackgroundImageFix" result="shape"/>
<feGaussianBlur stdDeviation="5" result="effect1_foregroundBlur"/>
</filter>
<filter id="filter1_f" x="1028" y="-277.05" width="543.258" height="538.612" filterUnits="userSpaceOnUse" color-interpolation-filters="sRGB">
<feFlood flood-opacity="0" result="BackgroundImageFix"/>
<feBlend mode="normal" in="SourceGraphic" in2="BackgroundImageFix" result="shape"/>
<feGaussianBlur stdDeviation="5" result="effect1_foregroundBlur"/>
</filter>
<linearGradient id="paint0_linear" x1="-170.062" y1="805.918" x2="97.4208" y2="438.281" gradientUnits="userSpaceOnUse">
<stop stop-color="#FB6337"/>
<stop offset="1" stop-color="white" stop-opacity="0"/>
</linearGradient>
<linearGradient id="paint1_linear" x1="-170.062" y1="805.918" x2="97.4208" y2="438.281" gradientUnits="userSpaceOnUse">
<stop stop-color="#FB6337"/>
<stop offset="1" stop-color="white" stop-opacity="0"/>
</linearGradient>
<linearGradient id="paint2_linear" x1="1110.49" y1="-7.31126" x2="1560.93" y2="140.686" gradientUnits="userSpaceOnUse">
<stop stop-color="#FB6337"/>
<stop offset="1" stop-color="white" stop-opacity="0"/>
</linearGradient>
<linearGradient id="paint3_linear" x1="1110.49" y1="-7.31126" x2="1560.93" y2="140.686" gradientUnits="userSpaceOnUse">
<stop stop-color="#FB6337"/>
<stop offset="1" stop-color="white" stop-opacity="0"/>
</linearGradient>
</defs>
</svg>
