<svg width="1154" height="1983" viewBox="0 0 1154 1983" fill="none" xmlns="http://www.w3.org/2000/svg">
<g clip-path="url(#clip0_546:12)">
<rect width="1154" height="1983" fill="#F5F5F5"/>
<g filter="url(#filter0_f_546:12)">
<path fill-rule="evenodd" clip-rule="evenodd" d="M-394.37 1558.27C-441.529 1433.14 -335.142 1298.82 -301.864 1159.02C-267.735 1015.64 -311.549 819.796 -202.167 750.83C-92.5439 681.711 1.73339 836.688 102.816 903.859C196.241 965.943 328.457 986.812 349.402 1117.36C370.784 1250.63 269.341 1367.06 194.999 1478.43C116.369 1596.21 42.1194 1739.82 -76.8958 1755.94C-206.278 1773.47 -341.786 1697.79 -394.37 1558.27Z" fill="#117DEC"/>
<path fill-rule="evenodd" clip-rule="evenodd" d="M-394.37 1558.27C-441.529 1433.14 -335.142 1298.82 -301.864 1159.02C-267.735 1015.64 -311.549 819.796 -202.167 750.83C-92.5439 681.711 1.73339 836.688 102.816 903.859C196.241 965.943 328.457 986.812 349.402 1117.36C370.784 1250.63 269.341 1367.06 194.999 1478.43C116.369 1596.21 42.1194 1739.82 -76.8958 1755.94C-206.278 1773.47 -341.786 1697.79 -394.37 1558.27Z" fill="url(#paint0_linear_546:12)"/>
<path fill-rule="evenodd" clip-rule="evenodd" d="M-394.37 1558.27C-441.529 1433.14 -335.142 1298.82 -301.864 1159.02C-267.735 1015.64 -311.549 819.796 -202.167 750.83C-92.5439 681.711 1.73339 836.688 102.816 903.859C196.241 965.943 328.457 986.812 349.402 1117.36C370.784 1250.63 269.341 1367.06 194.999 1478.43C116.369 1596.21 42.1194 1739.82 -76.8958 1755.94C-206.278 1773.47 -341.786 1697.79 -394.37 1558.27Z" fill="#117DEC"/>
<path fill-rule="evenodd" clip-rule="evenodd" d="M-394.37 1558.27C-441.529 1433.14 -335.142 1298.82 -301.864 1159.02C-267.735 1015.64 -311.549 819.796 -202.167 750.83C-92.5439 681.711 1.73339 836.688 102.816 903.859C196.241 965.943 328.457 986.812 349.402 1117.36C370.784 1250.63 269.341 1367.06 194.999 1478.43C116.369 1596.21 42.1194 1739.82 -76.8958 1755.94C-206.278 1773.47 -341.786 1697.79 -394.37 1558.27Z" fill="url(#paint1_linear_546:12)"/>
</g>
<g filter="url(#filter1_f_546:12)">
<path fill-rule="evenodd" clip-rule="evenodd" d="M877.399 -84.452C912.06 -149.619 1009.12 -119.919 1080.62 -138.164C1153.95 -156.876 1219.63 -239.832 1290.35 -189.828C1361.22 -139.714 1331.96 -36.2372 1342.24 46.8342C1351.74 123.612 1393.37 213.406 1346.44 263.461C1298.53 314.56 1210.87 282.961 1135.68 267.135C1056.15 250.396 967.435 243.708 915.278 172.709C858.578 95.5264 838.752 -11.7889 877.399 -84.452Z" fill="#117DEC"/>
<path fill-rule="evenodd" clip-rule="evenodd" d="M877.399 -84.452C912.06 -149.619 1009.12 -119.919 1080.62 -138.164C1153.95 -156.876 1219.63 -239.832 1290.35 -189.828C1361.22 -139.714 1331.96 -36.2372 1342.24 46.8342C1351.74 123.612 1393.37 213.406 1346.44 263.461C1298.53 314.56 1210.87 282.961 1135.68 267.135C1056.15 250.396 967.435 243.708 915.278 172.709C858.578 95.5264 838.752 -11.7889 877.399 -84.452Z" fill="url(#paint2_linear_546:12)"/>
<path fill-rule="evenodd" clip-rule="evenodd" d="M877.399 -84.452C912.06 -149.619 1009.12 -119.919 1080.62 -138.164C1153.95 -156.876 1219.63 -239.832 1290.35 -189.828C1361.22 -139.714 1331.96 -36.2372 1342.24 46.8342C1351.74 123.612 1393.37 213.406 1346.44 263.461C1298.53 314.56 1210.87 282.961 1135.68 267.135C1056.15 250.396 967.435 243.708 915.278 172.709C858.578 95.5264 838.752 -11.7889 877.399 -84.452Z" fill="#117DEC"/>
<path fill-rule="evenodd" clip-rule="evenodd" d="M877.399 -84.452C912.06 -149.619 1009.12 -119.919 1080.62 -138.164C1153.95 -156.876 1219.63 -239.832 1290.35 -189.828C1361.22 -139.714 1331.96 -36.2372 1342.24 46.8342C1351.74 123.612 1393.37 213.406 1346.44 263.461C1298.53 314.56 1210.87 282.961 1135.68 267.135C1056.15 250.396 967.435 243.708 915.278 172.709C858.578 95.5264 838.752 -11.7889 877.399 -84.452Z" fill="url(#paint3_linear_546:12)"/>
</g>
<g filter="url(#filter2_f_546:12)">
<path fill-rule="evenodd" clip-rule="evenodd" d="M1080.01 1221.46C1126.89 1186.81 1192.76 1219.4 1250.25 1209.71C1309.04 1199.81 1369.19 1131.14 1418.71 1164.38C1470.21 1198.96 1434.72 1283.01 1449.24 1343.31C1459.14 1384.42 1493.2 1418.04 1489.93 1460.19C1486.52 1504.14 1456.87 1539.2 1431.27 1575.08C1400.02 1618.87 1376.39 1675.22 1325.04 1691.27C1271.79 1707.92 1211.35 1689.52 1165.08 1658.3C1121.54 1628.91 1108.41 1574.26 1083.31 1528.12C1057.2 1480.1 1016.08 1437.88 1015.5 1383.24C1014.86 1323.72 1032.16 1256.83 1080.01 1221.46Z" fill="#117DEC"/>
<path fill-rule="evenodd" clip-rule="evenodd" d="M1080.01 1221.46C1126.89 1186.81 1192.76 1219.4 1250.25 1209.71C1309.04 1199.81 1369.19 1131.14 1418.71 1164.38C1470.21 1198.96 1434.72 1283.01 1449.24 1343.31C1459.14 1384.42 1493.2 1418.04 1489.93 1460.19C1486.52 1504.14 1456.87 1539.2 1431.27 1575.08C1400.02 1618.87 1376.39 1675.22 1325.04 1691.27C1271.79 1707.92 1211.35 1689.52 1165.08 1658.3C1121.54 1628.91 1108.41 1574.26 1083.31 1528.12C1057.2 1480.1 1016.08 1437.88 1015.5 1383.24C1014.86 1323.72 1032.16 1256.83 1080.01 1221.46Z" fill="url(#paint4_linear_546:12)"/>
</g>
</g>
<defs>
<filter id="filter0_f_546:12" x="-416.237" y="723.459" width="778.539" height="1044.98" filterUnits="userSpaceOnUse" color-interpolation-filters="sRGB">
<feFlood flood-opacity="0" result="BackgroundImageFix"/>
<feBlend mode="normal" in="SourceGraphic" in2="BackgroundImageFix" result="shape"/>
<feGaussianBlur stdDeviation="5" result="effect1_foregroundBlur_546:12"/>
</filter>
<filter id="filter1_f_546:12" x="847.38" y="-215.634" width="530.967" height="517.029" filterUnits="userSpaceOnUse" color-interpolation-filters="sRGB">
<feFlood flood-opacity="0" result="BackgroundImageFix"/>
<feBlend mode="normal" in="SourceGraphic" in2="BackgroundImageFix" result="shape"/>
<feGaussianBlur stdDeviation="5" result="effect1_foregroundBlur_546:12"/>
</filter>
<filter id="filter2_f_546:12" x="892" y="1012" width="762.273" height="762.211" filterUnits="userSpaceOnUse" color-interpolation-filters="sRGB">
<feFlood flood-opacity="0" result="BackgroundImageFix"/>
<feBlend mode="normal" in="SourceGraphic" in2="BackgroundImageFix" result="shape"/>
<feGaussianBlur stdDeviation="5" result="effect1_foregroundBlur_546:12"/>
</filter>
<linearGradient id="paint0_linear_546:12" x1="-93.1661" y1="1472.05" x2="328.164" y2="987.356" gradientUnits="userSpaceOnUse">
<stop stop-color="#FB6337"/>
<stop offset="1" stop-color="white" stop-opacity="0"/>
</linearGradient>
<linearGradient id="paint1_linear_546:12" x1="-93.1661" y1="1472.05" x2="328.164" y2="987.356" gradientUnits="userSpaceOnUse">
<stop stop-color="#FB6337"/>
<stop offset="1" stop-color="white" stop-opacity="0"/>
</linearGradient>
<linearGradient id="paint2_linear_546:12" x1="889.432" y1="-4.7968" x2="1516.37" y2="151.551" gradientUnits="userSpaceOnUse">
<stop stop-color="#FB6337"/>
<stop offset="1" stop-color="white" stop-opacity="0"/>
</linearGradient>
<linearGradient id="paint3_linear_546:12" x1="889.432" y1="-4.7968" x2="1516.37" y2="151.551" gradientUnits="userSpaceOnUse">
<stop stop-color="#FB6337"/>
<stop offset="1" stop-color="white" stop-opacity="0"/>
</linearGradient>
<linearGradient id="paint4_linear_546:12" x1="1057.43" y1="1258.79" x2="1533.7" y2="1675.93" gradientUnits="userSpaceOnUse">
<stop stop-color="#E64314"/>
<stop offset="1" stop-color="#117DEC" stop-opacity="0"/>
</linearGradient>
<clipPath id="clip0_546:12">
<rect width="1154" height="1983" fill="white"/>
</clipPath>
</defs>
</svg>
