<svg width="28" height="28" viewBox="0 0 28 28" fill="none" xmlns="http://www.w3.org/2000/svg">
<path fill-rule="evenodd" clip-rule="evenodd" d="M14.9079 3.04723e-07H13.0879C12.0628 3.04723e-07 11.0801 0.380171 10.357 1.0564C9.7161 1.65578 9.32406 2.44603 9.24848 3.28693L9.23593 3.55853C9.22195 4.44293 8.46988 5.13288 7.54675 5.13279C7.3374 5.13072 7.11998 5.08533 6.91981 4.99982L6.72346 4.9024C4.90966 3.93423 2.55137 4.52727 1.48721 6.24632L0.530371 7.70974C-0.487064 9.35268 0.0147477 11.4167 1.65714 12.4797L1.88555 12.6161C2.44851 12.9197 2.77033 13.4385 2.77033 14C2.77033 14.5163 2.49777 14.9991 2.04319 15.292L1.88801 15.3824C0.186441 16.2977 -0.483998 18.3178 0.371318 19.9982L0.496323 20.2219L1.43555 21.7314C1.92374 22.5516 2.7603 23.1695 3.74972 23.4313C4.62668 23.6633 5.56257 23.5991 6.39228 23.2518L6.65464 23.1298C7.09621 22.8922 7.5524 22.8353 7.98056 22.9419C8.40872 23.0486 8.77337 23.31 8.99345 23.668C9.11479 23.8586 9.18602 24.0551 9.21145 24.2587L9.22397 24.4655C9.2218 26.389 10.9527 28 13.0879 28H14.9084C16.9245 28 18.5978 26.5585 18.7615 24.698L18.7734 24.4577C18.7723 23.993 18.9489 23.5934 19.2651 23.2991C19.5812 23.0049 20.0106 22.8405 20.4577 22.8425C20.6632 22.8478 20.8889 22.8957 21.0982 22.9828L21.2987 23.0789C22.991 23.9881 25.2086 23.5211 26.3507 21.9924L26.4973 21.7798L27.4693 20.2726C27.9927 19.4366 28.1344 18.4544 27.8702 17.5322C27.636 16.7148 27.0991 16.0016 26.3559 15.5177L26.1098 15.371C25.6822 15.1409 25.4004 14.7991 25.2855 14.3981C25.1706 13.9971 25.2322 13.5701 25.4566 13.2115C25.5809 13.0096 25.7462 12.8416 25.9444 12.713L26.3236 12.4912C27.859 11.521 28.434 9.61127 27.6258 8.00579L27.542 7.84944C27.5239 7.80867 27.5029 7.76891 27.4791 7.73043L26.5755 6.27099C25.5701 4.64685 23.3961 4.01656 21.5835 4.8097L21.3421 4.92574C20.909 5.16163 20.4516 5.22125 20.021 5.11719C19.5904 5.01313 19.222 4.75394 18.997 4.39676C18.8815 4.21563 18.8102 4.01911 18.7848 3.81549L18.7723 3.60872C18.804 2.72955 18.41 1.78753 17.6817 1.09019C16.9534 0.39286 15.9528 -0.000399617 14.9079 3.04723e-07ZM13.0773 1.93104H14.9246C15.3882 1.93086 15.8316 2.10398 16.1544 2.41097C16.4771 2.71796 16.6518 3.13266 16.6385 3.56062L16.6581 3.91632C16.7249 4.46005 16.8975 4.93308 17.1703 5.35803C17.6926 6.18145 18.5524 6.78236 19.5574 7.0236C20.5623 7.26484 21.6298 7.12661 22.5244 6.63938L22.6786 6.56671L22.8446 6.50525C23.5749 6.27865 24.4357 6.56544 24.8493 7.22917L25.7238 8.63356L25.7428 8.67313L25.8485 8.86158C26.2024 9.56183 25.9067 10.4476 25.1409 10.8617L24.9006 11.0016C24.3907 11.3291 23.9997 11.724 23.7152 12.1832C23.1954 13.008 23.0516 13.9981 23.3198 14.9277C23.5635 15.7728 24.1294 16.5046 24.908 16.9911L25.3151 17.2291C25.6024 17.416 25.8393 17.7286 25.9426 18.0869C26.0592 18.4911 25.9967 18.9215 25.7689 19.283L24.8053 20.7677L24.6969 20.9244C24.251 21.5158 23.3713 21.7354 22.6297 21.4344L22.1571 21.2113C21.6301 20.992 21.1146 20.8835 20.5907 20.8705C19.5231 20.8655 18.5209 21.2467 17.7831 21.9289C17.0453 22.611 16.633 23.5375 16.638 24.5023L16.6296 24.6562C16.5599 25.434 15.8179 26.069 14.9246 26.069H13.0773C12.1941 26.069 11.467 25.4512 11.374 24.6575L11.3438 24.1585C11.277 23.6148 11.1044 23.1417 10.8316 22.7168C10.3245 21.897 9.4696 21.2882 8.46581 21.0399C7.46201 20.7915 6.39251 20.9242 5.49501 21.4083L5.33243 21.4819C5.00882 21.6154 4.59402 21.6436 4.20538 21.5415C3.76689 21.4263 3.39614 21.1543 3.17517 20.7856L2.23417 19.2848L2.14999 19.1344C1.79354 18.4368 2.0895 17.551 2.85644 17.1408L3.08944 17.0053C4.184 16.306 4.81719 15.1918 4.81719 14C4.81719 12.7905 4.16581 11.6668 3.09207 10.9956L2.70218 10.7673C2.01328 10.3233 1.79076 9.41422 2.23568 8.70031L3.20665 7.22517C3.69167 6.44746 4.73682 6.18639 5.55647 6.62062L5.84414 6.7609C6.38144 6.99046 6.90832 7.09971 7.44276 7.10484C9.51608 7.10509 11.2115 5.6328 11.3662 3.75679L11.3863 3.32653C11.4166 3.00308 11.5896 2.65671 11.8724 2.39403C12.1914 2.09765 12.625 1.93104 13.0773 1.93104ZM14 9.65517C11.2386 9.65517 9 11.6004 9 14C9 16.3996 11.2386 18.3448 14 18.3448C16.7614 18.3448 19 16.3996 19 14C19 11.6004 16.7614 9.65517 14 9.65517ZM14 11.5862C15.6569 11.5862 17 12.6669 17 14C17 15.3331 15.6569 16.4138 14 16.4138C12.3431 16.4138 11 15.3331 11 14C11 12.6669 12.3431 11.5862 14 11.5862Z" fill="#14396A"/>
</svg>
